<svg fill="none" height="128" viewBox="0 0 401 128" width="401" xmlns="http://www.w3.org/2000/svg"><g fill="#fff"><path d="m84.0719 3.53012c-2.5342 2.39037-3.844 3.78475-3.7586 4.06932.0854.25611.484 2.58956.9112 5.20756.4271 2.6465.8542 4.7808.9396 4.7808.0854-.0285 1.8793-1.6505 3.9579-3.6425l3.8155-3.614-.9112-5.12223c-.484-2.81722-.9396-5.1506781-.9681-5.20759162-.0569-.05691358-1.8508 1.53666162-3.9863 3.52864162z"/><path d="m74.4761 13.0062-2.4488 2.2766 1.139 6.8296 1.3098-1.0814c.7119-.626 1.8793-1.7074 2.5627-2.4188l1.2813-1.309-.5125-3.2725c-.2848-1.7928-.598-3.2726-.7119-3.2726s-1.2813 1.0245-2.6196 2.2481z"/><path d="m21.8277 13.6038c0 .37 2.3063 10.1022 2.4202 10.216.1709.1423 9.909 3.7563 9.966 3.6709.0854-.1423-2.3064-10.1591-2.4773-10.3298-.3132-.313-9.9089-3.7563-9.9089-3.5571z"/><path d="m65.9054 18.2992c-.0854 6.4312.057 15.9358.3417 21.7694.4841 9.1631 1.5091 21.0865 1.8508 20.9726.4556-.1423 9.9375-10.2444 14.7781-15.7366 6.0649-6.858 13.155-15.5374 15.6037-19.1229l.9112-1.3375-1.1105.8537c-4.385 3.2441-12.7564 10.7282-20.6152 18.4116-3.0182 2.9595-5.5524 5.3498-5.5809 5.2929-.0569-.0569-.3132-1.935-.5695-4.2116-1.2528-11.0128-4.385-29.4527-5.2961-31.0179-.1424-.2561-.2563 1.4229-.3133 4.1263z"/><path d="m87.8304 17.4455-2.4772 2.3619.5695 3.3579c.3132 1.8497.5979 3.3863.6264 3.4148s1.1959-1.0244 2.5911-2.3335l2.5342-2.3619-.5125-3.0733c-.2563-1.6789-.5695-3.2156-.6834-3.4148s-1.1105.5976-2.6481 2.0489z"/><path d="m49.2766 17.4455c.0854.4553.2847 1.7358.4556 2.8457.9396 6.1466 3.1037 16.2203 5.5809 25.7249.8542 3.3294 1.5091 6.1182 1.4522 6.1751-.057.0569-1.5376-.5407-3.3315-1.309-10.0513-4.4393-30.6096-12.0372-30.0401-11.0697.5126.7683 12.8703 7.8825 21.384 12.2649 7.7734 3.9839 20.3305 9.9598 20.3305 9.6468 0-.1138-1.082-3.7847-2.3919-8.1671-3.9294-12.9478-7.8303-24.0744-11.5035-32.6968-1.623-3.8417-2.2494-4.923-1.9362-3.4148z"/><path d="m36.5202 20.7749c.2278.996.5695 2.5042.7688 3.3579l.3417 1.5651 3.2461 1.2237c1.7938.6545 3.2745 1.1667 3.3314 1.1382.1424-.1707-1.4806-6.4881-1.7369-6.7157-.2563-.2277-5.8087-2.3335-6.1788-2.3335-.1139 0 0 .7968.2277 1.7643z"/><path d="m77.4944 23.336c-2.0502 1.8782-3.7586 3.5571-3.7871 3.6994-.1139.2561 1.3383 9.22 1.623 9.9599.1424.3984.9681-.2561 4.0149-3.1587l3.8155-3.6425-.8258-5.1507c-.4555-2.8456-.9111-5.1791-.9966-5.1791-.0854 0-1.8223 1.5651-3.8439 3.4717z"/><path d="m26.355 31.7023.7688 3.3295 3.2745 1.1951c1.7939.683 3.2746 1.1952 3.303 1.1668.0854-.0569-1.5376-6.7443-1.6515-6.8297-.2562-.1707-5.8941-2.1627-6.1504-2.1627-.1708 0 .0285 1.3944.4556 3.301z"/><path d="m35.7799 29.5965c.0285.8252 2.221 9.6753 2.4488 9.903.3417.3414 9.5673 3.7278 9.7381 3.5571.1139-.0854-2.1355-10.1591-2.3064-10.2445-.1708-.1138-9.5957-3.5571-9.7381-3.5571-.0854 0-.1424.1708-.1424.3415z"/><path d="m197.512 63.1186v30.1642h7.973v-41.6608l1.452 1.5367c.798.8537 8.856 9.0493 17.91 18.2123 9.055 9.1631 18.024 18.2693 19.961 20.2897 1.964 1.992 3.644 3.614 3.758 3.614s.171-13.6023.143-30.2495l-.086-30.2211-7.916-.1707.171 21.0864c.086 11.5819.057 21.058-.057 21.058s-1.423-1.2521-2.876-2.7887c-1.452-1.5082-6.435-6.6589-11.104-11.4397-4.642-4.7807-9.141-9.3907-9.966-10.2444-8.03-8.3094-18.936-19.3506-19.106-19.3506-.143 0-.257 13.517-.257 30.1642z"/><path d="m287.348 34.4057c-11.418 1.622-21.612 10.9559-24.516 22.3955-3.132 12.3218 1.737 25.0704 12.272 32.1277 3.332 2.2481 7.005 3.7278 11.162 4.5246 3.787.7114 10.165.4268 13.61-.5691 10.251-3.0165 18.195-11.0128 20.929-21.0865.797-2.9026 1.082-9.3907.569-12.6064-.939-5.7767-4.014-11.6672-8.428-16.1065-6.862-6.8581-16.202-10.0168-25.598-8.6793zm9.425 7.8256c8.143 1.7074 15.205 9.3623 16.6 18.0416 1.851 11.4112-5.068 22.4809-15.831 25.355-2.933.7968-7.916.8537-10.764.1138-8.029-2.0204-14.407-8.5655-16.201-16.5618-.57-2.5327-.598-7.5126-.057-10.0737.911-4.2685 3.417-8.7078 6.549-11.5535 5.467-5.0084 12.358-6.8581 19.704-5.3214z"/><path d="m162.632 34.7756c-8.229 1.6221-13.212 6.6874-13.725 14.0292-.341 4.6385.854 7.8825 4.015 11.0412 2.306 2.305 4.47 3.5287 10.535 5.976 7.945 3.2156 10.764 5.1506 12.216 8.3663.74 1.7074.598 5.5775-.285 7.3133-1.908 3.6425-6.948 5.8621-12.301 5.4068-3.758-.313-8.77-2.0488-11.76-4.0977-.683-.4553-1.366-.9107-1.566-1.0245-.512-.2846-3.844 5.8052-3.445 6.289.683.8252 7.887 4.0977 10.621 4.8376 2.591.7114 3.303.7683 8.115.7683 4.983 0 5.41-.0284 7.546-.7683 4.755-1.5936 8.342-4.5815 10.222-8.5086 1.196-2.5611 1.594-4.4108 1.594-7.4272 0-4.6953-1.423-8.1955-4.556-11.3258-1.509-1.5082-2.534-2.1911-5.153-3.4717-1.794-.8822-4.214-1.9351-5.382-2.3619-3.331-1.1383-8.314-3.6994-9.767-4.9515-1.736-1.5367-2.591-3.3294-2.562-5.5491 0-3.6424 2.192-6.232 6.207-7.4272 1.281-.3699 2.392-.4268 4.955-.313 3.701.1423 6.833.9391 10.478 2.618l2.079.9676 1.423-2.8173c.798-1.5651 1.424-2.9595 1.424-3.1302 0-.7683-6.72-3.3864-10.592-4.1262-3.389-.6545-7.945-.7684-10.336-.3131z"/><path d="m326.329 36.7107c7.147 18.8953 22.466 58.7632 22.608 58.9055.114.1138 3.531-7.598 7.603-17.131 4.043-9.5614 7.46-17.2448 7.574-17.1309.085.1138 3.16 7.854 6.805 17.1878 3.673 9.3623 6.72 17.0172 6.805 17.0172.143 0 17.996-46.8683 22.296-58.5071l.768-2.1058h-4.242c-4.157 0-4.243 0-4.414.626-.569 1.8782-13.924 40.5225-14.094 40.7217-.086.1138-3.816-9.1347-8.286-20.5743l-8.087-20.7734h-7.83l.256.626c.142.37 1.566 3.984 3.132 8.0533 2.449 6.2605 2.848 7.4841 2.62 8.1102-.171.3984-2.364 6.1466-4.898 12.8055-2.505 6.6589-4.669 12.2649-4.783 12.4925-.143.2562-.484-.3414-.997-1.7074-.399-1.1667-3.787-10.6997-7.517-21.1718l-6.777-19.066-4.613-.0854-4.613-.0569z"/><path d="m108.816 38.8165c-6.606 3.4433-14.8921 8.3663-22.6371 13.4316-6.008 3.927-16.5718 11.212-16.4295 11.3258.1709.1707 13.2404 3.2156 19.3908 4.5246 9.0832 1.9066 24.8008 4.4677 27.1638 4.4108 2.307-.0569-16.3152-6.3458-29.0431-9.8176-2.7904-.7683-5.0683-1.4513-5.0399-1.5366 0-.0854 1.9648-1.5936 4.3281-3.3579 5.2677-3.8986 11.1618-8.5655 16.0309-12.7487 3.673-3.1302 7.489-6.6589 7.232-6.6589-.085 0-.512.1992-.996.4269z"/><path d="m109.67 45.8169c-.94.7968-2.079 1.7358-2.534 2.1342-.456.37-.769.7399-.684.7968.057.0854 1.538.5692 3.275 1.0814l3.132.9675 2.62-2.1342c1.423-1.1668 2.591-2.1912 2.591-2.305 0-.1423-6.179-2.0774-6.549-2.0205-.086 0-.911.683-1.851 1.4798z"/><path d="m118.696 50.6545c-2.249 1.8782-4.043 3.4717-3.986 3.5287.171.1707 9.539 2.9595 9.909 2.9595.399 0 8.343-6.5451 8.172-6.7443-.085-.0569-2.221-.7399-4.784-1.5367-2.562-.7683-4.812-1.4513-4.954-1.5082-.171-.0569-2.136 1.4229-4.357 3.301z"/><path d="m98.1665 54.7523c-2.1925 1.8212-4.0148 3.3864-4.0148 3.5002 0 .1707 8.8273 2.8741 9.7093 2.9595.57.0569 8.571-6.4028 8.286-6.6589-.171-.1423-4.242-1.4228-9.482-2.988-.284-.0853-1.964 1.1099-4.4985 3.1872z"/><path d="m16.9871 55.5775c0 .057 1.623.7399 3.6446 1.5083 5.1823 2.0204 15.6038 5.3783 23.5481 7.5979 7.8303 2.1627 7.6595 2.1058 7.5171 2.2481-.0569.0569-2.6766 2.0204-5.8087 4.3823-8.7985 6.602-22.0958 17.7571-21.6687 18.1839.3986.3984 15.4329-8.3947 24.2883-14.2284 6.3212-4.1547 15.2906-10.3867 15.4045-10.6997.0569-.1992-12.671-3.2725-20.3874-4.8661-5.5809-1.1668-16.4865-3.0164-20.9854-3.5571-2.0217-.2277-4.1287-.4838-4.6128-.5692-.5125-.0569-.9396-.0569-.9396 0z"/><path d="m111.663 60.2729-2.705 2.2196 2.905.9107c1.623.4837 3.132.939 3.388 1.0244.285.0854 1.452-.7114 3.075-2.0489 1.424-1.1667 2.591-2.1912 2.591-2.2481s-1.31-.5122-2.904-.996c-1.623-.4837-3.075-.939-3.275-.996-.199-.0569-1.566.8822-3.075 2.1343z"/><path d="m15.1932 65.5089c-1.3952 1.1668-2.5342 2.1912-2.5342 2.3335.0285.1138 1.4522.6545 3.1891 1.1667l3.1891.9676 1.9932-1.6505c1.1105-.9106 2.3349-1.9351 2.7335-2.2481.6834-.5692.7118-.6261.1993-.7684-.9396-.2845-5.6663-1.6789-5.9795-1.7927-.1424-.0569-1.4237.8537-2.7905 1.9919z"/><path d="m68.8098 66.5334c0 .9675 5.9795 19.9482 8.6846 27.4608 2.1355 6.0043 6.8053 17.5008 7.09 17.5008.1708 0-.9966-7-1.9647-11.8095-1.1105-5.5206-3.0183-13.6308-4.6698-19.8343l-1.1104-4.1832.9111.3699c.4841.1992 3.1322 1.3375 5.8942 2.5327 8.4567 3.614 22.8362 8.907 26.3102 9.7038 2.534.5691-12.7851-8.2525-24.3455-14.0577-4.3566-2.1911-16.4865-7.9679-16.7143-7.9679-.0285 0-.0854.1139-.0854.2846z"/><path d="m25.0167 70.0336-4.1002 3.4432 4.9545 1.5083c2.705.8252 5.0683 1.5082 5.2107 1.4797.1709 0 2.1071-1.5082 4.3565-3.3863l4.0433-3.3579-.9111-.3131c-1.3952-.4268-8.5707-2.5895-9.0548-2.7318-.2278-.0569-2.2209 1.4228-4.4989 3.3579z"/><path d="m60.894 71.9117c-8.5991 9.1062-15.1766 16.6188-21.2131 24.2736-3.3884 4.2967-5.1823 6.7727-4.926 6.7727.2562 0 6.8053-5.4636 10.5638-8.7931 2.0217-1.8212 6.606-6.0897 10.1652-9.5046 6.065-5.8051 6.4921-6.1466 6.4921-5.3498 0 3.301 2.9613 22.8505 4.6128 30.4205.7403 3.386.9397 4.012 1.1674 3.443.3133-.854.057-23.5906-.3416-29.1397-.6549-8.9923-1.2244-15.7081-1.4237-16.4765-.1994-.7968-.2848-.7114-5.0969 4.3539z"/><path d="m4.51545 74.1313c-2.61961 2.1628-3.929417 3.4149-3.701625 3.5287.199315.1138 2.363345.7968 4.783635 1.5367 2.42029.7114 4.55584 1.3659 4.72664 1.4228.3133.0854 8.1436-6.1751 8.3145-6.6589.0569-.1707-9.33952-3.1872-9.909-3.1587-.08542 0-1.9647 1.5082-4.21415 3.3294z"/><path d="m17.8413 79.3674c-1.3383 1.1098-2.4488 2.1058-2.5057 2.2196-.057.1992 5.6948 2.0205 6.3497 2.0205.3132 0 5.0684-3.8702 5.2107-4.2116.057-.2277-5.5809-2.0489-6.2643-2.0489-.1993.0284-1.4521.939-2.7904 2.0204z"/><path d="m85.4101 85.3433c.0855.37.6265 2.7319 1.2244 5.2645l1.0536 4.5816 4.7551 1.7358c2.5912.9675 4.8691 1.7643 5.0115 1.7643.3416 0-1.9078-9.8176-2.3349-10.2159-.1424-.1423-2.164-.9391-4.5274-1.8213-2.3348-.8537-4.5274-1.6789-4.8121-1.7927-.4556-.1708-.5125-.1139-.3702.4837z"/><path d="m53.8894 94.2503-3.6731 3.5286.8257 5.0371c.4556 2.789.9681 5.122 1.1105 5.15.1708.057 1.9362-1.508 3.9864-3.443l3.7016-3.528-.8543-5.0373c-.484-2.7888-.9681-5.0938-1.1389-5.1222-.1424-.0569-1.9362 1.5082-3.9579 3.4148z"/><path d="m99.8465 91.0631c0 .4553 1.3385 6.2321 1.4805 6.3174.228.1708 6.35 2.3904 6.435 2.3335.057-.0854-1.395-6.5166-1.509-6.6589-.085-.1138-4.755-1.8782-5.752-2.1627-.455-.1423-.6545-.0854-.6545.1707z"/><path d="m89.3111 100.368c.0285.826 1.3383 6.033 1.5945 6.289.3417.313 6.0935 2.362 6.2358 2.249.057-.086-.2278-1.594-.6549-3.387l-.7688-3.244-3.2175-1.195c-2.6481-.968-3.1891-1.1099-3.1891-.712z"/><path d="m99.277 100.824c0 .54 2.221 9.846 2.392 10.017.342.341 9.709 3.671 9.795 3.471.085-.199-2.136-9.96-2.335-10.13-.028-.057-2.278-.911-4.954-1.907-3.247-1.195-4.898-1.679-4.898-1.451z"/><path d="m44.2082 103.812-2.4772 2.419.4556 2.845c.6834 4.269.484 4.183 3.3599 1.48l2.5342-2.333-.4841-2.846c-.7118-4.439-.5125-4.326-3.3884-1.565z"/><path d="m57.591 108.223-2.5342 2.333.5126 3.244c.2847 1.793.5695 3.33.6833 3.443.0855.114 1.2814-.882 2.6481-2.219l2.4773-2.391-.5695-3.329c-.3132-1.85-.598-3.358-.6264-3.386-.0285-.029-1.196.996-2.5912 2.305z"/><path d="m47.8529 113.516c-1.8508 1.735-3.6162 3.386-3.8725 3.642-.484.427-.4555.74.3987 5.663.484 2.846.9681 5.179 1.0535 5.179s1.8793-1.65 3.9579-3.642l3.7871-3.614-.8827-5.123c-.4841-2.817-.9112-5.15-.9682-5.179-.0284-.057-1.5945 1.338-3.4738 3.074z"/></g></svg>